<svg width="58" height="60" viewBox="0 0 58 60" fill="none" xmlns="http://www.w3.org/2000/svg">
<g filter="url(#filter0_d_2_12)">
<path d="M15.4932 26.7598H39.1935V41.9086H15.4932V26.7598Z" fill="#ACD3DB"/>
<path d="M40.5565 48.4663C40.5565 48.6289 40.5244 48.7899 40.4621 48.9401C40.3997 49.0904 40.3083 49.2268 40.1932 49.3416C40.078 49.4564 39.9413 49.5474 39.7909 49.6093C39.6405 49.6712 39.4794 49.7029 39.3167 49.7024H12.6404C12.4782 49.7024 12.3176 49.6704 12.1679 49.6082C12.0181 49.5461 11.8821 49.4549 11.7676 49.3401C11.6531 49.2253 11.5624 49.089 11.5006 48.939C11.4389 48.7891 11.4074 48.6284 11.4079 48.4663V8.0185C11.4074 7.85634 11.4389 7.69569 11.5006 7.54573C11.5624 7.39578 11.6531 7.25948 11.7676 7.14465C11.8821 7.02982 12.0181 6.93871 12.1679 6.87654C12.3176 6.81438 12.4782 6.78238 12.6404 6.78238H39.3167C40.0019 6.78238 40.5565 7.337 40.5565 8.0185V48.4663Z" fill="#E1B030"/>
<path d="M6.36188 47.6398H52.084V51.9716H6.36188V47.6398Z" fill="#5A7784"/>
<path d="M15.0039 10.1391H36.9569V24.1679H15.0039V10.1391Z" fill="#ACD3DB"/>
<path d="M24.7044 22.127L23.5262 24.1679H28.2387L27.0534 22.127H24.7044ZM18.9624 15.3374L17.69 16.3089L16.5119 14.7682L17.7842 13.7967L18.9624 15.3374ZM34.4737 13.8221L35.7425 14.79L34.5644 16.3306L33.2956 15.3627L34.4737 13.8221ZM30.2542 12.3286L31.7767 12.8361L31.1677 14.674L29.6452 14.1665L30.2542 12.3286ZM24.9907 12.006H26.5966V13.9454H24.9907V12.006ZM22.3807 14.152L20.8582 14.6595L20.242 12.8216L21.7681 12.3141L22.3807 14.152Z" fill="#555F69"/>
<path d="M26.2667 22.8157L25.1901 22.1524L30.8596 13.6989L31.2765 13.9562L26.2667 22.8157Z" fill="#CA5349"/>
<path d="M46.4689 19.5967C46.3174 19.5978 46.1673 19.5675 46.0282 19.5076C45.889 19.4477 45.7638 19.3595 45.6605 19.2487L39.6756 12.963C39.4732 12.7469 39.3643 12.4597 39.3724 12.1638C39.3805 11.8679 39.5051 11.5871 39.7191 11.3825C39.8253 11.2821 39.9502 11.2035 40.0867 11.1513C40.2232 11.0991 40.3687 11.0744 40.5148 11.0784C40.6608 11.0825 40.8047 11.1152 40.9381 11.1749C41.0716 11.2345 41.1919 11.3198 41.2924 11.426L47.2772 17.7154C47.4262 17.8738 47.5257 18.0723 47.5635 18.2865C47.6012 18.5007 47.5756 18.7212 47.4897 18.921C47.4039 19.1208 47.2615 19.2912 47.0802 19.4113C46.8988 19.5313 46.6864 19.5958 46.4689 19.5967Z" fill="#478BBB"/>
<path d="M47.7014 45.0877C47.1468 45.0877 46.5486 45.008 45.8961 44.8449C41.6875 43.8226 42.2131 37.062 42.6663 34.046H40.4804V31.813H45.3633L45.0841 33.1579C44.4824 36.0144 44.022 42.0971 46.4218 42.6807C47.618 42.9707 48.4771 42.9019 48.9846 42.4596C49.8293 41.7382 50.1193 39.8315 49.8474 36.7937C49.6806 34.9269 49.0136 34.133 48.1654 33.1252C46.8676 31.5737 45.3923 29.8192 45.4575 24.6101L47.6833 24.6391C47.6289 29.0217 48.72 30.3159 49.8728 31.6897C50.7935 32.7881 51.8339 34.0279 52.0623 36.5944C52.4103 40.4985 51.8955 42.8982 50.4346 44.1561C49.7205 44.776 48.8034 45.0877 47.7014 45.0877Z" fill="#5A7784"/>
<path d="M44.0438 18.4911H48.894V24.3672H44.0438V18.4911Z" fill="#478BBB"/>
</g>
<defs>
<filter id="filter0_d_2_12" x="-4" y="0" width="66" height="66" filterUnits="userSpaceOnUse" color-interpolation-filters="sRGB">
<feFlood flood-opacity="0" result="BackgroundImageFix"/>
<feColorMatrix in="SourceAlpha" type="matrix" values="0 0 0 0 0 0 0 0 0 0 0 0 0 0 0 0 0 0 127 0" result="hardAlpha"/>
<feOffset dy="4"/>
<feGaussianBlur stdDeviation="2"/>
<feComposite in2="hardAlpha" operator="out"/>
<feColorMatrix type="matrix" values="0 0 0 0 0 0 0 0 0 0 0 0 0 0 0 0 0 0 0.25 0"/>
<feBlend mode="normal" in2="BackgroundImageFix" result="effect1_dropShadow_2_12"/>
<feBlend mode="normal" in="SourceGraphic" in2="effect1_dropShadow_2_12" result="shape"/>
</filter>
</defs>
</svg>
