<svg width="58" height="58" viewBox="0 0 58 58" fill="none" xmlns="http://www.w3.org/2000/svg">
<path d="M51.6019 42.6164C50.9856 42.0908 50.1655 41.47 49.1278 40.6861C45.2808 37.768 38.1622 32.3622 26.0366 20.2819C26.97 18.5827 27.5002 16.6795 27.5591 14.6767C27.6678 11.2511 26.3402 7.89344 23.9159 5.46922C19.9103 1.46359 13.698 0.661562 8.80875 3.52078C8.58671 3.65219 8.45078 3.89234 8.45078 4.15062C8.45078 4.40891 8.59125 4.64906 8.81328 4.77594L16.3397 9.1214C17.0828 12.8778 14.9259 16.6297 11.2737 17.8894L3.72468 13.5212C3.50265 13.3944 3.22625 13.3898 3.00421 13.5212C2.78218 13.6481 2.64171 13.8837 2.63718 14.142C2.5964 17.8259 4.17781 21.3241 6.97812 23.7392C9.29812 25.742 12.1981 26.7389 15.0981 26.7389C16.7248 26.7389 18.347 26.4127 19.8741 25.7828C30.8442 36.8028 36.0325 44.4425 39.1409 49.0236C40.2284 50.6277 41.0169 51.7877 41.692 52.5444C43.7583 54.8553 46.0058 56.1059 48.1989 56.1648C48.2533 56.1648 50.6141 56.5273 53.1062 54.0352C54.6741 52.4673 55.4353 50.75 55.3628 48.942C55.2722 46.7942 54.008 44.6645 51.6019 42.6164ZM47.492 51.1895C45.9559 51.1895 44.7053 49.9434 44.7053 48.4028C44.7053 46.8622 45.9514 45.6161 47.492 45.6161C49.0327 45.6161 50.2787 46.8622 50.2787 48.4028C50.2787 49.9434 49.0281 51.1895 47.492 51.1895Z" fill="#82AEC0"/>
<path d="M27.6995 21.9222C27.1558 21.3875 26.603 20.8392 26.0366 20.2773C26.97 18.5781 27.5002 16.675 27.5591 14.6722C27.5998 13.3128 27.4141 11.9716 27.0289 10.6892C26.6845 10.1228 26.1408 9.51562 25.7964 9.88265C25.9369 14.3323 24.6455 18.9678 21.5506 22.1669C20.0145 23.7528 18.0163 24.8992 15.873 25.443C14.8127 25.7103 13.7161 25.8281 12.6241 25.7692C11.9852 25.733 10.1817 25.0669 9.81922 25.5562V25.5789C11.4822 26.3537 13.2856 26.7389 15.0891 26.7389C16.7158 26.7389 18.338 26.4127 19.865 25.7828C23.413 29.3489 26.3538 32.557 28.8188 35.4253C27.5863 33.0962 23.9522 28.7961 22.9825 27.1558C22.765 26.7842 22.4569 25.8327 23.1502 24.9762C24.1334 23.7755 26.1317 22.6608 27.6995 21.9222Z" fill="#2F7889"/>
<path d="M31.7233 30.3186C31.7233 30.3186 33.4134 29.5755 35.9147 31.6009C38.4159 33.6309 48.0403 41.8144 48.8514 42.8973C49.6625 43.9803 46.3955 42.8792 45.2445 42.6798C44.0981 42.4759 31.7233 30.3186 31.7233 30.3186Z" fill="#B9E4EA"/>
<path d="M19.6294 5.4375C21.025 6.4389 22.2756 7.62156 23.5852 8.73625C23.9205 9.02172 24.4144 9.31172 24.7633 9.03531C25.1394 8.73625 24.9037 8.13812 24.6183 7.74843C22.1442 4.35 17.5269 1.92125 13.0636 2.8864C15.4198 3.64312 17.5359 3.94218 19.6294 5.4375Z" fill="#B9E4EA"/>
<path d="M8.53234 17.1009C9.08063 17.4272 9.84188 17.8713 10.2814 17.9936C10.8116 18.1386 12.3023 17.5631 12.7373 17.2142C10.952 16.0497 8.95828 14.7447 7.16844 13.5802C6.96453 13.4488 6.76062 13.3128 6.52953 13.2403C6.24859 13.1542 5.94953 13.1588 5.65953 13.1769C5.25172 13.195 3.25797 13.127 3.02687 13.4805C2.79125 13.8384 3.62047 14.1783 3.88781 14.3414C5.43297 15.2658 6.98719 16.1766 8.53234 17.1009Z" fill="#2F7889"/>
</svg>
